<?xml version="1.0" encoding="iso-8859-1"?>
<!-- Generator: Adobe Illustrator 18.0.0, SVG Export Plug-In . SVG Version: 6.00 Build 0)  -->
<!DOCTYPE svg PUBLIC "-//W3C//DTD SVG 1.1//EN" "http://www.w3.org/Graphics/SVG/1.1/DTD/svg11.dtd">
<svg version="1.1" id="Capa_1" xmlns="http://www.w3.org/2000/svg" xmlns:xlink="http://www.w3.org/1999/xlink" x="0px" y="0px"
	 viewBox="0 0 295.996 295.996" style="enable-background:new 0 0 295.996 295.996;" xml:space="preserve">
<g>
	<path d="M147.998,0C66.392,0,0,66.392,0,147.998c0,81.606,66.392,147.998,147.998,147.998c81.606,0,147.998-66.392,147.998-147.998
		C295.996,66.392,229.605,0,147.998,0z M147.998,279.996c-36.257,0-69.143-14.696-93.023-38.44
		c-9.536-9.482-17.631-20.41-23.934-32.42C21.442,190.847,16,170.047,16,147.998C16,75.214,75.214,16,147.998,16
		c34.523,0,65.987,13.328,89.533,35.102c12.208,11.288,22.289,24.844,29.558,39.996c8.27,17.239,12.907,36.538,12.907,56.9
		C279.996,220.782,220.782,279.996,147.998,279.996z M92.132,276.394c0.24,0.105,0.48,0.212,0.722,0.316
		C92.612,276.605,92.372,276.499,92.132,276.394z"/>
	<circle cx="98.497" cy="115.998" r="16"/>
	<circle cx="197.497" cy="115.998" r="16"/>
	<rect x="179.451" y="64.405" transform="matrix(0.9176 0.3974 -0.3974 0.9176 45.8265 -76.3235)" width="55.22" height="16"/>
	<rect x="61.324" y="64.405" transform="matrix(-0.9176 0.3974 -0.3974 -0.9176 199.317 103.5043)" width="55.219" height="16"/>
	<path d="M214.247,202.783c1.228,2.176,2.358,4.438,3.363,6.724l14.648-6.436c-1.218-2.771-2.589-5.513-4.075-8.148
		c-17.022-30.189-50.407-48.542-85.014-46.744c-34.383,1.779-65.563,23.325-79.435,54.892l14.648,6.438
		c11.461-26.08,37.215-43.881,65.613-45.351C172.581,162.675,200.181,177.837,214.247,202.783z"/>
</g>
<g>
</g>
<g>
</g>
<g>
</g>
<g>
</g>
<g>
</g>
<g>
</g>
<g>
</g>
<g>
</g>
<g>
</g>
<g>
</g>
<g>
</g>
<g>
</g>
<g>
</g>
<g>
</g>
<g>
</g>
</svg>
